<?xml version="1.0" encoding="UTF-8"?>
<svg id="Layer_2" xmlns="http://www.w3.org/2000/svg" viewBox="0 0 148.86 148.86">
  <defs>
    <style>
      .cls-1 {
        fill: #5c9b91;
      }
    </style>
  </defs>
  <g id="_레이어_1" data-name="레이어_1">
    <g>
      <path class="cls-1" d="M74.34,54.47c14.71-8.76,22.37-14.95,26.47-22.84,4.34-8.35,6.15-25.95-7.21-30.7-12.61-4.49-19.26,8.68-19.26,8.68,0,0-6.65-13.17-19.26-8.68-13.37,4.76-11.55,22.36-7.21,30.7,4.1,7.89,11.76,14.08,26.47,22.84Z"/>
      <path class="cls-1" d="M74.43,99.16c-.18-5.76-11.49-32.71-35.34-42.4-23.85-9.68-29.81-21.98-29.81-21.98C-9.59,59.64,1.83,106.75,29.9,119.32c28.07,12.56,33.29,29.55,33.29,29.55-.25-49.99-33.53-68.02-33.53-68.02,42.48,7.59,44.78,59.67,44.78,59.67,0,0-.18-35.59,0-41.35Z"/>
      <path class="cls-1" d="M109.77,56.77c-23.85,9.68-35.15,36.64-35.34,42.4.18,5.76,0,41.35,0,41.35,0,0,2.3-52.08,44.78-59.67,0,0-33.29,18.03-33.53,68.02,0,0,5.22-16.98,33.29-29.55,28.07-12.56,39.5-59.67,20.62-84.53,0,0-5.96,12.3-29.81,21.98Z"/>
    </g>
  </g>
</svg>