<svg width="1351" height="219" viewBox="0 0 1351 219" fill="none" xmlns="http://www.w3.org/2000/svg">
<path d="M0.355469 3.89062H69.7891L120.18 127.23H122.816L173.207 3.89062H242.641V216H188.148V91.1953H186.391L138.051 214.535H104.652L56.6055 90.3164H54.8477V216H0.355469V3.89062ZM475.258 109.945C475.258 180.551 430.141 218.93 372.719 218.93C314.711 218.93 269.887 180.258 269.887 109.945C269.887 39.3398 314.711 0.960938 372.719 0.960938C430.141 0.960938 475.258 39.3398 475.258 109.945ZM417.836 109.945C417.836 70.9805 401.723 49.5938 372.719 49.5938C343.422 49.5938 327.309 70.9805 327.309 109.945C327.309 148.91 343.422 170.297 372.719 170.297C401.723 170.297 417.836 148.91 417.836 109.945ZM502.504 3.89062H571.938L622.328 127.23H624.965L675.355 3.89062H744.789V216H690.297V91.1953H688.539L640.199 214.535H606.801L558.754 90.3164H556.996V216H502.504V3.89062ZM773.5 216V3.89062H924.965V49.0078H829.164V87.3867H917.055V132.504H829.164V170.883H924.672V216H773.5ZM1034.83 216H954.262V3.89062H1034.24C1099.57 3.89062 1140.3 43.7344 1140.3 109.945C1140.3 176.156 1099.57 216 1034.83 216ZM1009.93 168.539H1032.78C1065.59 168.539 1084.05 154.77 1084.05 109.945C1084.05 65.1211 1065.59 51.3516 1031.31 51.3516H1009.93V168.539ZM1350.06 3.89062V216H1303.48L1224.67 101.449H1223.21V216H1167.54V3.89062H1215L1292.64 117.855H1294.4V3.89062H1350.06Z" fill="#B8E6E1"/>
</svg>
