<svg xmlns="http://www.w3.org/2000/svg" width="430" height="430" fill="none" viewBox="0 0 430 430"><g stroke-linejoin="round" stroke-width="6"><path stroke="#82c8c4" d="M285 115c-24.853 0-45 20.147-45 45v100h20v50c0 11.046 8.954 20 20 20s20-8.954 20-20V115zm-85 55h-80v20c0 12.095 8.589 22.184 20 24.5V310c0 11.046 8.954 20 20 20s20-8.954 20-20v-95.5c11.411-2.316 20-12.405 20-24.5z"/><path stroke="#82c8c4" stroke-linecap="round" d="M160 170v-55m40 55v-55m-80 55v-50"/><path stroke="#121331" stroke-linecap="round" stroke-miterlimit="10" d="M333.44 333.44c-65.412 65.413-171.468 65.413-236.88 0s-65.413-171.468 0-236.88m236.88 236.88c65.413-65.412 65.413-171.468 0-236.88s-171.468-65.413-236.88 0m236.88 236.88L96.56 96.56"/></g></svg>