<svg xmlns="http://www.w3.org/2000/svg" width="430" height="430" fill="none" viewBox="0 0 430 430"><g stroke-linecap="round" stroke-linejoin="round" stroke-miterlimit="10" stroke-width="6"><path stroke="#121331" d="M219.759 68.5c9.4-5.2 20.7-9.7 34.2-13 49.8 47.5 37.2 94.5 37.2 94.5l-3.4 12.7m-140.9 58.9 27.6-102.8s5.6-21.1 29.5-39.9m-62.6 163.499-2.9 10.5c-3.3 12.4 1.4 25.5 11.9 32.9l35.1 24.8 42.8-3.9c12.8-1.2 23.4-10.2 26.7-22.5l23.6-88m-103.6 152.202c4.2-15.7-17.6-30-30-27.5"/><path stroke="#121331" d="m146.859 221.6 25.5 24.6-31-3.8"/><path stroke="#82c8c4" d="m168.459 374.499 60.9-227.3"/><path stroke="#121331" d="m278.659 196.099-28.5-6.4 37.5-27m-67.9-94.199 4.7 40.8-20.5-30.4m-14.7 89.4-19.9-30.4m95.5 109.901-32.2 9.1"/></g></svg>